<svg xmlns="http://www.w3.org/2000/svg" xmlns:xlink="http://www.w3.org/1999/xlink" width="1024" zoomAndPan="magnify" viewBox="0 0 768 767.999994" height="1024" preserveAspectRatio="xMidYMid meet" version="1.0"><defs><clipPath id="1857c89781"><path d="M 366.898438 556 L 450 556 L 450 640 L 366.898438 640 Z M 366.898438 556 " clip-rule="nonzero"/></clipPath><clipPath id="a8c54e6c35"><path d="M 423 498.511719 L 475 498.511719 L 475 549 L 423 549 Z M 423 498.511719 " clip-rule="nonzero"/></clipPath><clipPath id="2eb269b995"><path d="M 441 630 L 492 630 L 492 681.511719 L 441 681.511719 Z M 441 630 " clip-rule="nonzero"/></clipPath><clipPath id="917ec0a1bf"><path d="M 489 572 L 519.894531 572 L 519.894531 602 L 489 602 Z M 489 572 " clip-rule="nonzero"/></clipPath></defs><path fill="#000000" d="M 768 377.007812 C 763.640625 -132.679688 -7.363281 -120.78125 0.0546875 384.976562 C 17.769531 884.464844 760.324219 877.246094 768 376.996094 Z M 768 377.007812 " fill-opacity="1" fill-rule="nonzero"/><path fill="#1238e6" d="M 216.492188 660.398438 C 216.015625 658.824219 218.917969 657.011719 225.347656 652.851562 C 243.675781 641.375 263.570312 631.996094 281.78125 619.90625 C 319.097656 593.085938 352.917969 560.300781 379.773438 523.105469 C 382.410156 520.621094 395.902344 497.484375 386.734375 504.152344 C 378.050781 511.078125 365.136719 522.996094 354.902344 533.820312 C 309.710938 586.902344 227.722656 631.300781 169.695312 653.375 C 185.273438 667.625 249.769531 701.464844 281.78125 712.738281 C 353.988281 733.980469 447.894531 735.308594 519.578125 701.132812 C 519.933594 700.5 518.351562 700.492188 513.816406 701.160156 C 506.992188 702.203125 495.707031 704.035156 489.488281 704.933594 C 405.476562 719.726562 290.109375 718.171875 216.492188 660.390625 Z M 216.492188 660.398438 " fill-opacity="1" fill-rule="nonzero"/><path fill="#1238e6" d="M 504.429688 409.726562 C 481.621094 426.367188 450.15625 407.820312 446.914062 385.589844 C 438.304688 355.234375 467.402344 333.121094 491.355469 338.964844 C 495.828125 339.507812 515.667969 346.578125 503.503906 345.890625 C 456.300781 344.1875 457.640625 410.832031 504.429688 409.695312 L 504.429688 409.734375 Z M 504.429688 409.726562 " fill-opacity="1" fill-rule="nonzero"/><path fill="#1238e6" d="M 473.011719 306.457031 C 536.449219 278.558594 590.519531 338.324219 575.359375 403.15625 C 564.085938 444.652344 530.863281 457.675781 492.859375 453.125 C 483.203125 452.398438 469.878906 450 485.804688 449.433594 C 527.316406 447.050781 562.1875 405.914062 554.449219 364.191406 C 544.722656 326.1875 511.582031 302.445312 473 306.449219 Z M 473.011719 306.457031 " fill-opacity="1" fill-rule="nonzero"/><path fill="#f400c6" d="M 541.773438 306.640625 C 529.332031 288.714844 507.414062 285.519531 487.777344 284.070312 C 348.722656 286.625 370.546875 488.488281 501.359375 468.605469 C 514.15625 466.882812 529.800781 459.664062 539.941406 449.058594 C 540.617188 448.167969 538.253906 449.058594 537.851562 449.15625 C 475.695312 470.058594 394.621094 423.273438 421.027344 350.09375 C 429.75 329.027344 448.324219 315.441406 470.65625 307.585938 C 489.269531 298.058594 512.496094 295.980469 531.660156 305.375 C 534.867188 305.585938 547.1875 315.636719 541.773438 306.640625 Z M 541.773438 306.640625 " fill-opacity="1" fill-rule="nonzero"/><path fill="#f400c6" d="M 199.730469 585.683594 C 194.699219 585.453125 189.746094 577.054688 185.640625 574.015625 C 175.582031 564.9375 169.65625 562.859375 172.019531 548.265625 C 172.285156 537.722656 172.789062 530.734375 170.902344 519.863281 C 170.574219 511.425781 163.042969 503.894531 164.949219 495.761719 C 166.367188 491.886719 171.625 487.957031 175.160156 489.183594 C 181.691406 491.941406 189.101562 511.609375 188.890625 518.671875 C 189.285156 527.425781 187.8125 536.835938 188.683594 545.644531 C 198.273438 567.21875 209.574219 554.945312 225.367188 548.3125 C 238.300781 544.21875 258.835938 539.5625 272.273438 538.097656 C 285.957031 537.402344 252.242188 551.5625 250.023438 553.140625 C 234.425781 559.980469 223.773438 565.878906 212.140625 576.25 C 208.441406 579.273438 204.484375 585.371094 199.730469 585.675781 Z M 199.730469 585.683594 " fill-opacity="1" fill-rule="nonzero"/><path fill="#f400c6" d="M 265.871094 497.191406 C 269.535156 503.246094 276.351562 498.566406 274.179688 492.445312 C 276.128906 461.578125 299.542969 408.964844 322.386719 385.828125 C 324.082031 382.402344 313.117188 388.429688 312.007812 389.113281 C 284.59375 403.613281 250.0625 470.574219 265.871094 497.183594 Z M 265.871094 497.191406 " fill-opacity="1" fill-rule="nonzero"/><path fill="#f400c6" d="M 181.648438 418.390625 C 180.191406 420.496094 185.640625 423.691406 187.683594 426.066406 C 192.382812 429.859375 194.023438 437.101562 198.683594 440.117188 C 206.863281 442.753906 210.34375 433.824219 204.875 428.191406 C 200.324219 421.890625 189.660156 414.09375 181.648438 418.398438 Z M 181.648438 418.390625 " fill-opacity="1" fill-rule="nonzero"/><path fill="#f400c6" d="M 162.539062 374.441406 C 166.945312 368.503906 175.191406 366.9375 181.691406 363.933594 C 204.914062 356.453125 230.558594 335.421875 237.019531 313.035156 C 236.734375 310.964844 232.109375 315.160156 229.460938 317.074219 C 209.492188 333.1875 183.242188 340.734375 158.105469 345.558594 C 141.996094 349.324219 148.121094 332.929688 148.167969 323.285156 C 148.625 314.179688 147.691406 305.277344 143.679688 297.03125 C 135.472656 279.949219 134.472656 283.832031 133.941406 299.203125 C 132.476562 319.988281 112.730469 327.535156 106.757812 340.625 C 105.308594 348.484375 114.925781 358.871094 119.058594 366.03125 C 123.191406 372.480469 130.003906 382.464844 132.421875 388.640625 C 134.886719 394.996094 127.679688 393.308594 123.929688 392.972656 C 113.433594 391.800781 118.820312 401.582031 120.617188 409.101562 C 124.929688 422.574219 115.871094 439.613281 125.175781 451.464844 C 127.632812 454.121094 131.589844 455.09375 134.738281 453.195312 C 143.019531 449 138.082031 429.976562 147.378906 432.523438 C 154.664062 435.34375 157.8125 445.394531 164.675781 448.820312 C 167.652344 450.394531 170.390625 449.953125 171.910156 448.398438 C 175.996094 443.742188 169.375 434.65625 168.109375 429.207031 C 164.902344 419.78125 163.878906 409.523438 162.320312 399.621094 C 161.570312 391.476562 157.867188 381.769531 162.550781 374.449219 Z M 162.539062 374.441406 " fill-opacity="1" fill-rule="nonzero"/><path fill="#f400c6" d="M 127.621094 268.296875 C 133.660156 268.839844 141.4375 257.085938 146.289062 253.347656 C 153.644531 246.816406 163.703125 238.464844 173.632812 235.394531 C 186.5 232.648438 209.878906 255.027344 223.460938 261.261719 C 228.335938 264.40625 233.328125 268.820312 238.703125 270.753906 C 244.539062 272.824219 251.5625 271.859375 257.8125 271.832031 C 263.472656 271.421875 269.535156 272.558594 274.875 270.816406 C 284.328125 266.574219 287.453125 263.113281 297.71875 268.847656 C 311.175781 275.984375 327.003906 280.222656 341.871094 283.0625 C 355.636719 286.269531 362.019531 285.398438 349.800781 271.925781 C 306.46875 227.832031 259.824219 186.859375 204.21875 158.691406 C 199.738281 155.78125 194.386719 152.152344 189.074219 155.25 C 175.328125 162.519531 165.398438 174.042969 157.320312 187.425781 C 146.164062 204.308594 139.449219 217.378906 131.875 234.800781 C 127.386719 244.0625 119.480469 259.980469 127.613281 268.308594 Z M 127.621094 268.296875 " fill-opacity="1" fill-rule="nonzero"/><path fill="#f400c6" d="M 156.675781 134.859375 C 161.625 134.640625 165.71875 129.152344 169.402344 125.78125 C 177.617188 117.96875 185.101562 108.84375 196.019531 104.667969 C 200.875 103.054688 209.265625 98.410156 203.6875 92.917969 C 199.132812 89.894531 192.464844 81.265625 186.824219 86.046875 C 172.257812 96.066406 157.226562 109.136719 144.21875 121.273438 C 139.769531 124.710938 145.476562 127.816406 148.230469 130.40625 C 151.015625 132.578125 153.363281 134.886719 156.675781 134.867188 Z M 156.675781 134.859375 " fill-opacity="1" fill-rule="nonzero"/><path fill="#f400c6" d="M 222.378906 66.964844 C 225.339844 59.609375 239.117188 57.972656 245.609375 53.949219 C 288.101562 37.726562 332.335938 25.117188 378.609375 26.445312 C 511.765625 16.183594 654.234375 117.152344 695.566406 213.835938 C 639.277344 144.679688 566.511719 86.148438 482.378906 62.175781 C 476.125 63.652344 471.039062 70.65625 464.785156 73.160156 C 440.996094 82.335938 410.851562 77.839844 388.648438 65.921875 C 379.597656 60.710938 374.324219 54.160156 367.269531 48.554688 C 341.367188 41.96875 313.53125 52.191406 288.183594 60.058594 C 280.710938 62.828125 266.355469 68.46875 257.976562 72.894531 C 249.054688 77.800781 238.8125 82.722656 229.425781 75.675781 C 226.53125 73.496094 222.628906 70.824219 222.390625 66.984375 Z M 222.378906 66.964844 " fill-opacity="1" fill-rule="nonzero"/><path fill="#1238e6" d="M 212.605469 435.410156 C 207.257812 399.21875 234.039062 413.304688 252.230469 394.730469 C 259.195312 388.253906 265.027344 380.304688 271.933594 373.664062 C 282.761719 361.917969 299.15625 351.597656 308.703125 340.652344 C 308.527344 331.425781 275.140625 347.8125 268.730469 338.625 C 258.707031 321.222656 286.910156 274.71875 309.894531 278.613281 C 321.296875 278.824219 336.347656 285.242188 347.804688 285.171875 C 379.03125 283.292969 333.242188 268.097656 325.371094 266.226562 C 310.398438 261.527344 295.6875 258.542969 280.9375 259.230469 C 267.5 260.046875 253.734375 261.015625 240.738281 256.574219 C 215.730469 250.949219 198.316406 226.8125 171.707031 228.726562 C 153.335938 230.992188 129.792969 248.496094 131.242188 268.105469 C 131.726562 275.046875 134.355469 281.898438 136.554688 288.558594 C 139.660156 295.914062 142.316406 315.140625 146.136719 318.375 C 156.441406 315.820312 150.90625 280.527344 150.84375 271.347656 C 152.390625 231.171875 193.023438 240.855469 214.183594 261.308594 C 256.875 290.710938 230.882812 332.609375 194.222656 351.9375 C 180.96875 359.429688 163.199219 365.988281 160.09375 382.546875 C 157.585938 397.128906 162.074219 421.019531 170.785156 431.984375 C 173.707031 434.089844 176.140625 430.847656 178.515625 428.96875 C 188.78125 416.730469 203.4375 429.308594 209.253906 439.804688 " fill-opacity="1" fill-rule="nonzero"/><path fill="#1238e6" d="M 198.949219 484.054688 C 191.292969 488.289062 193.207031 498.628906 190.421875 505.582031 C 184.640625 518.925781 184.632812 535.074219 188.289062 549.0625 C 198.246094 570.882812 221.402344 549 237.171875 547.128906 C 244.722656 545.269531 252.066406 543.605469 260.238281 542.203125 C 270.257812 540.699219 280.875 541.953125 280.664062 528.472656 C 282.515625 504.949219 288.960938 483.84375 292.699219 460.945312 C 297.214844 439.4375 306.652344 419.324219 314.683594 399.804688 C 317.210938 391.523438 310.808594 399.429688 309.113281 401.976562 C 292.40625 428.832031 280.5 459.398438 274.828125 490.441406 C 274.03125 493.589844 271.53125 498.445312 267.757812 495.550781 C 262.71875 491.632812 263.304688 482.644531 256.675781 480.503906 C 247.5625 478.660156 239.929688 459.628906 230.734375 470.699219 C 225.007812 476.628906 231.0625 496.265625 220.695312 495.769531 C 213.101562 493.289062 208.449219 479.320312 198.960938 484.054688 Z M 198.949219 484.054688 " fill-opacity="1" fill-rule="nonzero"/><path fill="#1238e6" d="M 154.324219 618.886719 C 182.097656 603.28125 148.085938 588.542969 142.453125 568.363281 C 135.03125 549.714844 136.765625 528.746094 127.804688 510.730469 C 119.808594 492.316406 102.414062 479.675781 95.582031 460.761719 C 89.242188 442.480469 92.816406 422.585938 89.453125 403.503906 C 87.769531 385.863281 80.09375 369.082031 78.234375 351.878906 C 76.226562 328.441406 96.222656 315.964844 98.859375 295.027344 C 101.25 277.019531 87.640625 261.472656 87.394531 243.640625 C 87.0625 218.113281 104.484375 192.539062 118.425781 174.089844 C 126.210938 165.972656 138.980469 144.183594 118.582031 145.683594 C 69.75 173.484375 36.109375 266.8125 29.816406 321.132812 C 15.828125 427.257812 48.410156 562.683594 143.632812 622.699219 " fill-opacity="1" fill-rule="nonzero"/><path fill="#1238e6" d="M 335.503906 154.195312 C 360.65625 173.019531 376.6875 198.867188 400.914062 222.726562 C 402.78125 224.320312 405.960938 228.390625 407.65625 226.585938 C 411.0625 209.8125 344.710938 143.140625 343.207031 140.886719 C 322.101562 118.324219 293.421875 94.648438 268.4375 74.3125 C 263.828125 69.824219 262.023438 69.667969 256.152344 73.296875 C 253.953125 75.285156 241.140625 78.625 244.179688 81.640625 C 254.652344 90.257812 313 135.839844 335.503906 154.195312 Z M 335.503906 154.195312 " fill-opacity="1" fill-rule="nonzero"/><path fill="#1238e6" d="M 195.46875 105.820312 C 193.96875 102.269531 207.230469 95.152344 210.464844 98.648438 C 229.296875 112.226562 283.027344 148.5625 311.835938 173.339844 C 336.363281 197.082031 356.800781 220.476562 376.183594 250.234375 C 387.621094 269.378906 379.148438 264.140625 370.035156 252.03125 C 351.140625 231.347656 330.894531 211.597656 311.625 191.667969 C 277.59375 162.082031 235.753906 129.261719 195.460938 105.820312 Z M 195.46875 105.820312 " fill-opacity="1" fill-rule="nonzero"/><g clip-path="url(#1857c89781)"><path fill="#ffffff" d="M 366.898438 597.886719 C 387.5625 590.757812 402.839844 578.9375 408.058594 556.851562 C 413.277344 578.832031 428.492188 590.757812 449.242188 597.886719 C 428.492188 605.035156 413.195312 616.980469 408.101562 639.875 C 402.964844 617.003906 387.730469 605.035156 366.917969 597.886719 Z M 445.296875 597.863281 C 427.515625 590.96875 414.234375 580.339844 408.101562 561.285156 C 402.011719 580.296875 388.6875 590.988281 370.84375 597.886719 C 388.6875 604.800781 402.011719 615.515625 408.121094 634.464844 C 414.277344 615.367188 427.644531 604.78125 445.316406 597.863281 Z M 445.296875 597.863281 " fill-opacity="1" fill-rule="nonzero"/></g><g clip-path="url(#a8c54e6c35)"><path fill="#f400c6" d="M 448.691406 548.871094 C 444.722656 535.613281 435.726562 528.441406 423.421875 523.730469 C 435.621094 519.019531 444.765625 511.847656 448.691406 498.585938 C 452.660156 511.699219 461.613281 518.976562 474.003906 523.664062 C 461.761719 528.398438 452.550781 535.589844 448.691406 548.871094 Z M 448.691406 548.871094 " fill-opacity="1" fill-rule="nonzero"/></g><g clip-path="url(#2eb269b995)"><path fill="#f400c6" d="M 466.34375 681.121094 C 462.417969 667.839844 453.316406 660.605469 441.011719 655.980469 C 453.335938 651.289062 462.503906 644.035156 466.34375 630.792969 C 470.226562 644.054688 479.371094 651.375 491.742188 655.957031 C 479.433594 660.5625 470.25 667.839844 466.34375 681.121094 Z M 466.34375 681.121094 " fill-opacity="1" fill-rule="nonzero"/></g><g clip-path="url(#917ec0a1bf)"><path fill="#f400c6" d="M 489.554688 587.253906 C 496.898438 584.433594 502.136719 580.191406 504.683594 572.445312 C 507.230469 580.125 512.386719 584.328125 519.6875 587.214844 C 512.554688 590.078125 507.230469 594.195312 504.726562 601.9375 C 502.054688 594.34375 496.960938 589.992188 489.535156 587.234375 Z M 489.554688 587.253906 " fill-opacity="1" fill-rule="nonzero"/></g></svg>