<?xml version="1.0" standalone="no"?>
<!DOCTYPE svg PUBLIC "-//W3C//DTD SVG 1.1//EN" "http://www.w3.org/Graphics/SVG/1.1/DTD/svg11.dtd">
<svg xmlns="http://www.w3.org/2000/svg" xmlns:xlink="http://www.w3.org/1999/xlink" width="810" zoomAndPan="magnify" viewBox="0 0 810 809.999993" height="810" preserveAspectRatio="xMidYMid meet" version="1.0"><defs><g/><clipPath id="51127f5148"><path d="M 251.496094 82.964844 L 558.898438 82.964844 L 558.898438 479 L 251.496094 479 Z M 251.496094 82.964844 " clip-rule="nonzero"/></clipPath><clipPath id="5396df4421"><path d="M 387.632812 82.964844 C 314.394531 82.964844 226.480469 131.324219 258.132812 215.960938 C 274.644531 258.894531 319.152344 280.355469 359.375 296.351562 C 401.640625 314.054688 466.050781 329.546875 492.984375 368 C 515.011719 400.339844 497.503906 437.164062 466.671875 455.789062 C 446.957031 468.421875 424.296875 477.402344 400.683594 477.402344 C 400.476562 477.402344 400.265625 477.402344 400.0625 477.398438 L 400.058594 477.652344 C 403.648438 478.558594 407.726562 478.933594 412.066406 478.933594 C 426.632812 478.933594 444.167969 474.652344 456.308594 471.492188 C 496.9375 461.316406 544.359375 430.621094 556.257812 388.445312 C 570.964844 328.273438 510.492188 286.738281 463.847656 263.070312 C 442.8125 252.101562 420.8125 243.199219 399.199219 233.476562 C 373.253906 221.890625 344.714844 211.09375 327.082031 187.628906 C 311.84375 168.917969 311.542969 141.777344 324.597656 121.816406 C 339.246094 99.019531 366.273438 89.074219 391.601562 83.523438 L 391.582031 83.355469 L 391.546875 83.011719 C 390.246094 82.980469 388.941406 82.964844 387.628906 82.964844 Z M 387.632812 82.964844 " clip-rule="nonzero"/></clipPath><clipPath id="781041a537"><path d="M 328.050781 371.519531 L 408 371.519531 L 408 451.609375 L 328.050781 451.609375 Z M 328.050781 371.519531 " clip-rule="nonzero"/></clipPath><clipPath id="242679f8e6"><path d="M 368.132812 451.421875 C 367.839844 450.933594 367.667969 450.753906 367.621094 450.550781 C 366.96875 447.550781 365.71875 444.773438 364.472656 441.980469 C 360.832031 433.824219 355.09375 427.40625 348.058594 422.09375 C 344.257812 419.222656 340.121094 416.855469 335.757812 414.914062 L 329.921875 412.476562 C 329.335938 412.214844 328.878906 411.671875 328.183594 411.109375 C 329.570312 410.53125 330.632812 410.054688 331.710938 409.640625 C 337.054688 407.59375 342.085938 404.9375 346.761719 401.65625 C 353.636719 396.828125 359.277344 390.871094 363.234375 383.378906 C 365.078125 379.886719 366.609375 376.292969 367.601562 372.46875 C 367.65625 372.257812 367.796875 372.066406 367.949219 371.757812 C 368.890625 372.351562 369.214844 373.234375 369.449219 374.105469 C 370.550781 378.160156 372.382812 381.890625 374.484375 385.496094 C 377.878906 391.324219 382.519531 396.074219 387.769531 400.199219 C 391.367188 403.027344 395.289062 405.421875 399.503906 407.273438 L 407.730469 410.8125 C 407.828125 410.855469 407.890625 410.976562 408 411.101562 C 407.863281 411.882812 407.253906 412.222656 406.605469 412.519531 C 403.128906 414.078125 399.535156 415.433594 396.199219 417.25 C 393.070312 418.949219 390.121094 421.03125 387.234375 423.136719 C 381.34375 427.433594 376.824219 432.980469 373.367188 439.347656 C 371.78125 442.277344 370.296875 445.285156 369.507812 448.582031 C 369.285156 449.503906 368.671875 450.335938 368.132812 451.433594 " clip-rule="nonzero"/></clipPath><clipPath id="cd52038c7c"><path d="M 397.148438 101.023438 L 476.453125 101.023438 L 476.453125 181.503906 L 397.148438 181.503906 Z M 397.148438 101.023438 " clip-rule="nonzero"/></clipPath><clipPath id="a6b3a944c3"><path d="M 436.738281 101.351562 C 444.207031 121.871094 455.246094 132.542969 475.667969 140.324219 C 477.90625 141.816406 473.960938 142.820312 472.851562 143.304688 C 454.90625 150.089844 442.742188 163.128906 436.746094 181.214844 C 432.371094 165.3125 421.03125 152.253906 406.023438 145.550781 C 403.210938 144.019531 399.675781 143.476562 397.375 141.214844 C 400.273438 138.667969 404.523438 137.921875 407.882812 135.96875 C 422.042969 129.210938 432.5625 116.410156 436.742188 101.355469 " clip-rule="nonzero"/></clipPath><clipPath id="de99b1e2e2"><path d="M 326.480469 327 L 372.414062 327 L 372.414062 377 L 326.480469 377 Z M 326.480469 327 " clip-rule="nonzero"/></clipPath><clipPath id="f5d9715adc"><path d="M 362.164062 352.164062 C 362.273438 351.386719 361.691406 351.007812 360.964844 350.609375 C 356.667969 348.234375 353.054688 345.128906 350.636719 340.777344 C 350.296875 340.167969 349.871094 339.59375 349.027344 339.570312 C 346.152344 344.472656 342.300781 348.3125 337.265625 350.933594 C 336.320312 351.425781 336.359375 352.25 337.253906 352.824219 L 337.464844 352.925781 C 341.917969 355.390625 345.535156 358.578125 348.136719 362.855469 C 348.453125 363.382812 348.800781 363.886719 349.214844 364.53125 C 351.191406 362.101562 352.832031 359.621094 354.925781 357.628906 C 357.070312 355.585938 359.664062 354.019531 362.167969 352.167969 M 326.554688 352.386719 C 326.691406 351.179688 327.378906 350.996094 328.070312 350.785156 C 332.648438 349.363281 336.945312 347.386719 340.582031 344.183594 C 343.269531 341.816406 345.445312 339.0625 346.550781 335.609375 L 348.710938 328.179688 C 348.800781 327.871094 348.933594 327.566406 349.121094 327.066406 C 350.113281 328.183594 350.539062 329.300781 350.742188 330.523438 C 351.488281 335.042969 353.328125 339.078125 356.414062 342.460938 C 358.851562 345.128906 361.785156 347.191406 365.140625 348.589844 L 371.039062 350.871094 C 371.660156 351.109375 372.246094 351.382812 372.289062 352.371094 L 368.3125 353.898438 C 362.042969 356.140625 356.695312 359.605469 353.382812 365.558594 C 352.105469 367.851562 351.144531 370.351562 350.78125 373.011719 C 350.542969 374.734375 350.183594 375.503906 349.09375 376.632812 L 348.832031 376.234375 C 348.316406 374.085938 348.007812 372.09375 347.382812 370.207031 C 346.097656 366.308594 344.15625 362.761719 341.027344 360 C 337.871094 357.203125 334.289062 355.125 330.253906 353.832031 L 326.546875 352.386719 " clip-rule="nonzero"/></clipPath><clipPath id="a34f3f9a5d"><path d="M 432.089844 175.617188 L 479.199219 175.617188 L 479.199219 225.867188 L 432.089844 225.867188 Z M 432.089844 175.617188 " clip-rule="nonzero"/></clipPath><clipPath id="1cdae39b58"><path d="M 455.585938 213.285156 C 456.054688 212.835938 456.621094 212.480469 456.921875 211.972656 C 459.515625 207.613281 463.113281 204.34375 467.535156 201.929688 C 468.101562 201.617188 468.539062 201.074219 469.128906 200.558594 C 467.917969 199.847656 466.933594 199.332031 466.015625 198.71875 C 462.367188 196.28125 459.121094 193.449219 456.941406 189.539062 C 456.664062 189.042969 456.070312 188.722656 455.417969 188.136719 C 452.542969 193.910156 447.9375 197.546875 442.386719 200.566406 C 443.175781 201.191406 443.703125 201.730469 444.332031 202.089844 C 447.648438 203.964844 450.554688 206.3125 452.839844 209.378906 C 453.75 210.59375 454.589844 211.855469 455.582031 213.28125 M 455.425781 175.78125 C 456.597656 177.113281 456.917969 178.449219 457.183594 179.839844 C 458.089844 184.582031 460.1875 188.757812 463.609375 192.15625 C 466.171875 194.699219 469.199219 196.632812 472.613281 197.90625 L 478.695312 200.195312 C 478.835938 200.25 478.925781 200.433594 479.195312 200.722656 C 478.308594 201.1875 477.542969 201.761719 476.679688 202.011719 C 473.769531 202.835938 471.0625 204.117188 468.496094 205.636719 C 464.480469 208.015625 461.25 211.183594 459.261719 215.515625 C 458.222656 217.769531 457.4375 220.089844 457.007812 222.53125 C 456.8125 223.632812 456.320312 224.605469 455.476562 225.730469 C 455.265625 225.035156 455.113281 224.617188 455.011719 224.195312 C 454.394531 221.566406 453.839844 218.921875 452.765625 216.417969 C 450.695312 211.585938 447.285156 208.007812 442.730469 205.457031 C 440.164062 204.019531 437.515625 202.785156 434.679688 201.933594 C 433.882812 201.691406 433.179688 201.15625 432.128906 200.589844 C 433.742188 199.957031 434.964844 199.402344 436.230469 198.988281 C 441.003906 197.4375 445.257812 195.035156 448.710938 191.359375 C 451.371094 188.523438 453.152344 185.195312 453.964844 181.351562 C 454.339844 179.578125 454.882812 177.84375 455.429688 175.785156 " clip-rule="nonzero"/></clipPath></defs><g clip-path="url(#51127f5148)"><g clip-path="url(#5396df4421)"><path fill="#2e00dd" d="M 249.53125 81 L 560.46875 81 L 560.46875 481.054688 L 249.53125 481.054688 Z M 249.53125 81 " fill-opacity="1" fill-rule="nonzero"/></g></g><g clip-path="url(#781041a537)"><g clip-path="url(#242679f8e6)"><path fill="#f400c6" d="M 249.53125 81 L 560.46875 81 L 560.46875 481.054688 L 249.53125 481.054688 Z M 249.53125 81 " fill-opacity="1" fill-rule="nonzero"/></g></g><g clip-path="url(#cd52038c7c)"><g clip-path="url(#a6b3a944c3)"><path fill="#f400c6" d="M 249.53125 81 L 560.46875 81 L 560.46875 481.054688 L 249.53125 481.054688 Z M 249.53125 81 " fill-opacity="1" fill-rule="nonzero"/></g></g><g clip-path="url(#de99b1e2e2)"><g clip-path="url(#f5d9715adc)"><path fill="#f400c6" d="M 249.53125 81 L 560.46875 81 L 560.46875 481.054688 L 249.53125 481.054688 Z M 249.53125 81 " fill-opacity="1" fill-rule="nonzero"/></g></g><g clip-path="url(#a34f3f9a5d)"><g clip-path="url(#1cdae39b58)"><path fill="#f400c6" d="M 249.53125 81 L 560.46875 81 L 560.46875 481.054688 L 249.53125 481.054688 Z M 249.53125 81 " fill-opacity="1" fill-rule="nonzero"/></g></g><g fill="#2e00dd" fill-opacity="1"><g transform="translate(186.712933, 604.474982)"><g><path d="M 71.40625 -68 L 17 -68 C 9.515625 -68 3.40625 -61.875 3.40625 -54.40625 L 3.40625 -40.796875 C 3.40625 -33.3125 9.515625 -27.203125 17 -27.203125 L 57.796875 -27.203125 L 57.796875 -13.59375 L 3.40625 -13.59375 L 3.40625 0 L 57.796875 0 C 65.28125 0 71.40625 -6.125 71.40625 -13.59375 L 71.40625 -27.203125 C 71.40625 -34.6875 65.28125 -40.796875 57.796875 -40.796875 L 17 -40.796875 L 17 -54.40625 L 71.40625 -54.40625 Z M 71.40625 -68 "/></g></g></g><g fill="#2e00dd" fill-opacity="1"><g transform="translate(277.149371, 604.474982)"><g><path d="M 57.796875 0 C 65.359375 0 71.40625 -6.203125 71.40625 -13.59375 L 71.40625 -54.40625 C 71.40625 -61.875 65.28125 -68 57.796875 -68 L 17 -68 C 9.515625 -68 3.40625 -61.875 3.40625 -54.40625 L 3.40625 -13.59375 C 3.40625 -6.125 9.515625 0 17 0 Z M 17 -54.40625 L 57.796875 -54.40625 L 57.796875 -13.59375 L 17 -13.59375 Z M 17 -54.40625 "/></g></g></g><g fill="#2e00dd" fill-opacity="1"><g transform="translate(367.58581, 604.474982)"><g><path d="M 71.40625 0 L 71.40625 -13.59375 L 17 -13.59375 L 17 -68 L 3.40625 -68 L 3.40625 -13.59375 C 3.40625 -6.125 9.515625 0 17 0 Z M 71.40625 0 "/></g></g></g><g fill="#2e00dd" fill-opacity="1"><g transform="translate(458.02226, 604.474982)"><g><path d="M 17 -68 C 9.515625 -68 3.40625 -61.875 3.40625 -54.40625 L 3.40625 0 L 17 0 L 17 -27.203125 L 57.796875 -27.203125 L 57.796875 0 L 71.40625 0 L 71.40625 -54.40625 C 71.40625 -61.875 65.28125 -68 57.796875 -68 Z M 17 -54.40625 L 57.796875 -54.40625 L 57.796875 -40.796875 L 17 -40.796875 Z M 17 -54.40625 "/></g></g></g><g fill="#2e00dd" fill-opacity="1"><g transform="translate(548.458687, 604.474982)"><g><path d="M 71.40625 -54.40625 C 71.40625 -61.875 65.28125 -68 57.796875 -68 L 3.40625 -68 L 3.40625 0 L 17 0 L 17 -27.203125 L 24.984375 -27.203125 L 50.15625 -2.046875 C 51.515625 -0.6875 53.203125 0 55.078125 0 L 71.40625 0 L 71.40625 -13.59375 L 57.796875 -13.59375 L 44.203125 -27.203125 L 57.796875 -27.203125 C 65.28125 -27.203125 71.40625 -33.3125 71.40625 -40.796875 Z M 57.796875 -54.40625 L 57.796875 -40.796875 L 17 -40.796875 L 17 -54.40625 Z M 57.796875 -54.40625 "/></g></g></g><g fill="#2e00dd" fill-opacity="1"><g transform="translate(5.84575, 711.724976)"><g><path d="M 17 -68 C 9.515625 -68 3.40625 -61.875 3.40625 -54.40625 L 3.40625 0 L 17 0 L 17 -27.203125 L 57.796875 -27.203125 L 57.796875 0 L 71.40625 0 L 71.40625 -54.40625 C 71.40625 -61.875 65.28125 -68 57.796875 -68 Z M 17 -54.40625 L 57.796875 -54.40625 L 57.796875 -40.796875 L 17 -40.796875 Z M 17 -54.40625 "/></g></g></g><g fill="#2e00dd" fill-opacity="1"><g transform="translate(96.282189, 711.724976)"><g><path d="M 71.40625 -68 L 3.40625 -68 L 3.40625 -54.40625 L 30.59375 -54.40625 L 30.59375 0 L 44.203125 0 L 44.203125 -54.40625 L 71.40625 -54.40625 Z M 71.40625 -68 "/></g></g></g><g fill="#2e00dd" fill-opacity="1"><g transform="translate(186.718627, 711.724976)"><g><path d="M 57.796875 -40.796875 L 17 -40.796875 L 17 -68 L 3.40625 -68 L 3.40625 0 L 17 0 L 17 -27.203125 L 57.796875 -27.203125 L 57.796875 0 L 71.40625 0 L 71.40625 -68 L 57.796875 -68 Z M 57.796875 -40.796875 "/></g></g></g><g fill="#2e00dd" fill-opacity="1"><g transform="translate(277.155078, 711.724976)"><g><path d="M 71.40625 0 L 71.40625 -13.59375 L 17 -13.59375 L 17 -68 L 3.40625 -68 L 3.40625 -13.59375 C 3.40625 -6.125 9.515625 0 17 0 Z M 71.40625 0 "/></g></g></g><g fill="#2e00dd" fill-opacity="1"><g transform="translate(367.591505, 711.724976)"><g><path d="M 71.40625 -68 L 17 -68 C 9.515625 -68 3.40625 -61.875 3.40625 -54.40625 L 3.40625 -13.59375 C 3.40625 -6.125 9.515625 0 17 0 L 71.40625 0 L 71.40625 -13.59375 L 17 -13.59375 L 17 -27.203125 L 71.40625 -27.203125 L 71.40625 -40.796875 L 17 -40.796875 L 17 -54.40625 L 71.40625 -54.40625 Z M 71.40625 -68 "/></g></g></g><g fill="#2e00dd" fill-opacity="1"><g transform="translate(458.027932, 711.724976)"><g><path d="M 71.40625 -68 L 3.40625 -68 L 3.40625 -54.40625 L 30.59375 -54.40625 L 30.59375 0 L 44.203125 0 L 44.203125 -54.40625 L 71.40625 -54.40625 Z M 71.40625 -68 "/></g></g></g><g fill="#2e00dd" fill-opacity="1"><g transform="translate(548.464359, 711.724976)"><g><path d="M 71.40625 0 L 71.40625 -13.59375 L 44.203125 -13.59375 L 44.203125 -54.40625 L 71.40625 -54.40625 L 71.40625 -68 L 3.40625 -68 L 3.40625 -54.40625 L 30.59375 -54.40625 L 30.59375 -13.59375 L 3.40625 -13.59375 L 3.40625 0 Z M 71.40625 0 "/></g></g></g><g fill="#2e00dd" fill-opacity="1"><g transform="translate(638.900787, 711.724976)"><g><path d="M 71.40625 0 L 71.40625 -13.59375 L 17 -13.59375 L 17 -54.40625 L 71.40625 -54.40625 L 71.40625 -68 L 17 -68 C 9.515625 -68 3.40625 -61.875 3.40625 -54.40625 L 3.40625 -13.59375 C 3.40625 -6.125 9.515625 0 17 0 Z M 71.40625 0 "/></g></g></g><g fill="#2e00dd" fill-opacity="1"><g transform="translate(729.337214, 711.724976)"><g><path d="M 71.40625 -68 L 17 -68 C 9.515625 -68 3.40625 -61.875 3.40625 -54.40625 L 3.40625 -40.796875 C 3.40625 -33.3125 9.515625 -27.203125 17 -27.203125 L 57.796875 -27.203125 L 57.796875 -13.59375 L 3.40625 -13.59375 L 3.40625 0 L 57.796875 0 C 65.28125 0 71.40625 -6.125 71.40625 -13.59375 L 71.40625 -27.203125 C 71.40625 -34.6875 65.28125 -40.796875 57.796875 -40.796875 L 17 -40.796875 L 17 -54.40625 L 71.40625 -54.40625 Z M 71.40625 -68 "/></g></g></g></svg>